<svg width="180" height="64" fill="none" xmlns="http://www.w3.org/2000/svg"><path d="M180 48.013l-18.015-18.01L175.988 16h-7.997l-7.967 7.713V16h-6.001v32h6.001V36.416L171.992 48l8.008.013zM118.017 16h-14.003v6h8.002v26h6.001V22h8.002v-6h-8.002zM148.022 22v-6h-18.004v32h18.004v-6h-12.003v-7.987h12.003v-6h-12.003V22h12.003zM96.601 36.984A10.001 10.001 0 1179.997 25.91a10.002 10.002 0 0116.604 1.108l5.199-2.991a16 16 0 00-18.002-7.483 16.004 16.004 0 00-11.875 15.458 15.998 15.998 0 0011.875 15.459 16.007 16.007 0 0018.002-7.483l-5.199-2.994zM48.073 0H15.927A15.927 15.927 0 000 15.927v32.146A15.927 15.927 0 0015.927 64h32.146A15.927 15.927 0 0064 48.073V15.927A15.927 15.927 0 0048.073 0zM18.144 30H22v6h-3.418A14.022 14.022 0 0029 45.678V42h6v3.68a14.03 14.03 0 009.136-6.7l5.197 2.993A20.01 20.01 0 0135 51.778v4.24h-6v-4.24A20.018 20.018 0 0112.4 36H7.987v-6H12.1A20 20 0 0129 12.222V7.987h6v4.235a20 20 0 0114.333 9.807l-5.197 2.993A14.032 14.032 0 0035 18.324V22h-6v-3.673A14 14 0 0018.144 30z" fill="#1A965A"/></svg>